<svg width="669" height="205" viewBox="0 0 669 205" fill="none" xmlns="http://www.w3.org/2000/svg">
<path d="M14.016 150.544C14.016 159.621 18.8 165.08 28.368 166.92C30.208 167.288 32.2933 167.472 34.624 167.472C49.9573 167.472 62.1013 162.504 71.056 152.568C80.0107 142.755 84.488 130.365 84.488 115.4C84.488 109.512 83.384 104.115 81.176 99.208C79.0907 94.1787 76.4533 90.0693 73.264 86.88C70.0747 83.568 66.5787 80.256 62.776 76.944C59.096 73.632 55.6613 70.6267 52.472 67.928C49.2827 65.2293 46.584 61.9787 44.376 58.176C42.2907 54.3733 41.248 50.3253 41.248 46.032C41.248 34.7467 46.2773 24.3813 56.336 14.936C66.5173 5.368 77.4347 0.584002 89.088 0.584002C91.4187 0.584002 93.136 1.44267 94.24 3.16C95.344 4.87734 95.896 6.59467 95.896 8.31201L95.712 10.704C94.8533 10.2133 92.7067 9.96801 89.272 9.96801C81.4213 9.96801 73.816 13.648 66.456 21.008C59.096 28.368 55.416 36.8933 55.416 46.584C55.416 50.5093 56.4587 54.3733 58.544 58.176C60.752 61.856 63.4507 65.1067 66.64 67.928C69.8293 70.7493 73.264 73.9387 76.944 77.496C80.624 80.9307 84.0587 84.3653 87.248 87.8C90.4373 91.112 93.0747 95.2213 95.16 100.128C97.368 104.912 98.472 110.003 98.472 115.4C98.472 130.243 92.3387 143.429 80.072 154.96C67.8053 166.491 52.656 172.256 34.624 172.256C19.4133 172.256 9.784 167.349 5.736 157.536C2.54667 149.44 3.77333 140.485 9.416 130.672C15.0587 120.859 23.216 114.235 33.888 110.8C37.8133 109.573 41.3093 108.96 44.376 108.96C47.4427 108.96 49.528 109.512 50.632 110.616C51.8587 111.597 52.656 113.192 53.024 115.4C41.4933 115.4 31.6187 120.061 23.4 129.384C17.144 136.376 14.016 143.429 14.016 150.544ZM99.392 48.792C99.392 49.4053 98.7787 49.712 97.552 49.712C96.448 49.712 95.4053 49.4667 94.424 48.976C93.4427 48.4853 92.952 47.8107 92.952 46.952C92.952 34.44 94.3627 24.3813 97.184 16.776C100.005 9.17067 103.747 5.368 108.408 5.368C109.635 5.368 110.677 5.79734 111.536 6.65601C112.395 7.51467 112.824 8.61867 112.824 9.96801C107.304 15.488 103.317 23.768 100.864 34.808C99.8827 39.224 99.392 43.8853 99.392 48.792ZM172.629 85.776C176.677 79.2747 178.701 73.2027 178.701 67.56C178.701 61.7947 176.922 58.912 173.365 58.912C169.072 58.912 164.165 62.7147 158.645 70.32C153.248 77.8027 148.402 86.328 144.109 95.896C139.938 105.464 136.381 114.357 133.437 122.576C130.493 130.672 129.021 135.579 129.021 137.296C128.898 138.768 128.04 139.504 126.445 139.504C122.765 139.504 120.925 134.597 120.925 124.784C120.925 105.28 122.888 85.7147 126.813 66.088C130.738 46.3387 135.4 30.576 140.797 18.8C146.194 6.90134 151.224 0.952008 155.885 0.952008C157.848 0.952008 158.829 1.93334 158.829 3.896C152.328 18.248 146.685 35.728 141.901 56.336C137.976 72.2827 134.664 89.3947 131.965 107.672H133.437C147.421 71.7307 161.405 53.76 175.389 53.76C184.098 53.76 188.453 58.728 188.453 68.664C188.453 75.0427 186.061 81.7893 181.277 88.904C176.616 96.0187 170.666 100.741 163.429 103.072C164.901 104.421 167.906 112.824 172.445 128.28C174.04 133.8 176.248 138.829 179.069 143.368C181.89 147.907 184.896 150.176 188.085 150.176C191.397 150.176 193.85 149.011 195.445 146.68C196.181 146.68 196.549 146.987 196.549 147.6C196.549 148.213 196.242 149.133 195.629 150.36C192.93 154.04 189.618 156.064 185.693 156.432C180.664 156.432 175.941 153.856 171.525 148.704C167.109 143.552 163.674 137.909 161.221 131.776C158.768 125.643 156.437 119.571 154.229 113.56C152.144 107.427 150.856 103.992 150.365 103.256C149.506 102.643 148.954 101.907 148.709 101.048C158.4 101.048 166.373 95.9573 172.629 85.776ZM204.745 127.36C204.745 109.205 206.585 93.0133 210.265 78.784C214.068 64.5547 218.852 57.44 224.617 57.44C227.438 57.44 228.849 58.9733 228.849 62.04C227.622 65.2293 226.089 69.4613 224.249 74.736C222.409 80.0107 219.956 89.5787 216.889 103.44C213.945 117.179 212.473 129.445 212.473 140.24C212.473 141.957 211.553 142.816 209.713 142.816C206.401 142.816 204.745 137.664 204.745 127.36ZM229.401 40.144C226.825 40.144 225.537 37.6907 225.537 32.784C225.537 29.84 226.334 26.7733 227.929 23.584C229.524 20.272 231.793 18.616 234.737 18.616C237.19 18.616 238.417 20.0267 238.417 22.848C238.417 25.6693 236.148 30.392 231.609 37.016L229.401 40.144ZM254.334 113.192C270.158 74.0613 285.553 54.496 300.518 54.496C306.774 54.496 309.902 57.5013 309.902 63.512C309.043 66.3333 307.939 70.0747 306.59 74.736C305.241 79.2747 303.401 87.4933 301.07 99.392C298.862 111.291 297.758 121.717 297.758 130.672C297.758 143.675 299.659 150.176 303.462 150.176C304.934 150.176 306.345 149.563 307.694 148.336C309.043 147.232 309.963 146.68 310.454 146.68C312.171 146.68 312.171 148.029 310.454 150.728C309.841 151.587 308.675 152.752 306.958 154.224C305.363 155.696 303.707 156.432 301.99 156.432C297.329 156.432 293.649 153.059 290.95 146.312C288.374 139.688 287.086 131.04 287.086 120.368C287.086 103.44 289.723 84.856 294.998 64.616C295.489 63.0213 294.998 62.224 293.526 62.224C292.545 62.224 291.441 62.7147 290.214 63.696C284.326 68.848 278.131 77.3733 271.63 89.272C265.129 101.171 260.038 111.843 256.358 121.288C252.678 130.611 250.838 136.069 250.838 137.664C250.838 139.136 249.979 139.872 248.262 139.872C244.337 139.872 242.374 135.027 242.374 125.336C242.374 107.059 244.214 90.4987 247.894 75.656C251.697 60.8133 256.235 53.392 261.51 53.392C263.718 53.392 264.822 54.7413 264.822 57.44C259.179 75.7173 255.131 94.3013 252.678 113.192H254.334ZM331.614 150.544C331.614 159.621 336.398 165.08 345.966 166.92C347.806 167.288 349.891 167.472 352.222 167.472C367.555 167.472 379.699 162.504 388.654 152.568C397.608 142.755 402.086 130.365 402.086 115.4C402.086 109.512 400.982 104.115 398.774 99.208C396.688 94.1787 394.051 90.0693 390.862 86.88C387.672 83.568 384.176 80.256 380.374 76.944C376.694 73.632 373.259 70.6267 370.07 67.928C366.88 65.2293 364.182 61.9787 361.974 58.176C359.888 54.3733 358.846 50.3253 358.846 46.032C358.846 34.7467 363.875 24.3813 373.934 14.936C384.115 5.368 395.032 0.584002 406.686 0.584002C409.016 0.584002 410.734 1.44267 411.838 3.16C412.942 4.87734 413.494 6.59467 413.494 8.31201L413.31 10.704C412.451 10.2133 410.304 9.96801 406.87 9.96801C399.019 9.96801 391.414 13.648 384.054 21.008C376.694 28.368 373.014 36.8933 373.014 46.584C373.014 50.5093 374.056 54.3733 376.142 58.176C378.35 61.856 381.048 65.1067 384.238 67.928C387.427 70.7493 390.862 73.9387 394.542 77.496C398.222 80.9307 401.656 84.3653 404.846 87.8C408.035 91.112 410.672 95.2213 412.758 100.128C414.966 104.912 416.07 110.003 416.07 115.4C416.07 130.243 409.936 143.429 397.67 154.96C385.403 166.491 370.254 172.256 352.222 172.256C337.011 172.256 327.382 167.349 323.334 157.536C320.144 149.44 321.371 140.485 327.014 130.672C332.656 120.859 340.814 114.235 351.486 110.8C355.411 109.573 358.907 108.96 361.974 108.96C365.04 108.96 367.126 109.512 368.23 110.616C369.456 111.597 370.254 113.192 370.622 115.4C359.091 115.4 349.216 120.061 340.998 129.384C334.742 136.376 331.614 143.429 331.614 150.544ZM416.99 48.792C416.99 49.4053 416.376 49.712 415.15 49.712C414.046 49.712 413.003 49.4667 412.022 48.976C411.04 48.4853 410.55 47.8107 410.55 46.952C410.55 34.44 411.96 24.3813 414.782 16.776C417.603 9.17067 421.344 5.368 426.006 5.368C427.232 5.368 428.275 5.79734 429.134 6.65601C429.992 7.51467 430.422 8.61867 430.422 9.96801C424.902 15.488 420.915 23.768 418.462 34.808C417.48 39.224 416.99 43.8853 416.99 48.792ZM449.011 143C438.952 143 433.923 135.088 433.923 119.264C433.923 109.819 436.253 99.4533 440.915 88.168C447.416 72.344 455.941 61.5493 466.491 55.784C471.029 53.3307 475.261 52.104 479.187 52.104C483.112 52.104 486.179 52.9627 488.387 54.68C490.717 56.3973 492.189 58.1147 492.803 59.832L493.907 62.224C493.539 64.3093 492.496 65.352 490.779 65.352C488.816 65.352 487.651 64.9227 487.283 64.064C487.037 63.0827 486.731 62.2853 486.363 61.672C485.995 60.936 485.136 60.016 483.787 58.912C482.437 57.6853 480.904 57.072 479.187 57.072C471.213 57.072 463.976 64.248 457.475 78.6C450.115 95.16 446.435 110.739 446.435 125.336C446.435 132.696 447.907 136.376 450.851 136.376C453.181 136.376 456.432 133.8 460.603 128.648C464.896 123.373 469.373 116.811 474.035 108.96C482.131 95.4667 488.693 83.752 493.723 73.816C497.893 64.984 502.187 60.568 506.603 60.568C508.933 60.568 510.099 61.9787 510.099 64.8C508.995 67.1307 507.584 70.4427 505.867 74.736C504.149 79.0293 501.88 87.5547 499.059 100.312C496.237 113.069 494.827 125.765 494.827 138.4C494.827 151.035 496.728 157.352 500.531 157.352C502.003 157.352 503.352 156.677 504.579 155.328C505.805 154.101 506.909 152.2 507.891 149.624C508.259 148.275 509.117 147.6 510.467 147.6C510.957 147.6 511.325 147.784 511.571 148.152C511.816 148.52 511.816 149.133 511.571 149.992C511.325 150.851 510.896 152.016 510.283 153.488C509.669 155.083 508.32 157.168 506.235 159.744C504.272 162.32 502.187 163.608 499.979 163.608C494.827 163.608 490.84 160.235 488.019 153.488C485.32 146.741 483.971 138.768 483.971 129.568C483.971 120.368 484.645 111.536 485.995 103.072H484.155C468.576 129.691 456.861 143 449.011 143ZM537.242 143C527.183 143 522.154 135.088 522.154 119.264C522.154 109.819 524.484 99.4533 529.146 88.168C535.647 72.344 544.172 61.5493 554.722 55.784C559.26 53.3307 563.492 52.104 567.418 52.104C571.343 52.104 574.41 52.9627 576.618 54.68C578.948 56.3973 580.42 58.1147 581.034 59.832L582.138 62.224C581.77 64.3093 580.727 65.352 579.01 65.352C577.047 65.352 575.882 64.9227 575.514 64.064C575.268 63.0827 574.962 62.2853 574.594 61.672C574.226 60.936 573.367 60.016 572.018 58.912C570.668 57.6853 569.135 57.072 567.418 57.072C559.444 57.072 552.207 64.248 545.706 78.6C538.346 95.16 534.666 110.739 534.666 125.336C534.666 132.696 536.138 136.376 539.082 136.376C543.13 136.376 549.631 129.323 558.586 115.216C567.663 100.987 575.82 86.4507 583.058 71.608C586.738 64.1253 590.602 60.384 594.65 60.384C597.226 60.384 598.514 61.856 598.514 64.8C598.023 65.6587 597.287 67.0693 596.306 69.032C595.324 70.9947 593.546 76.6373 590.97 85.96C588.394 95.16 586.063 105.771 583.978 117.792C581.892 129.691 580.114 139.013 578.642 145.76C587.964 147.355 593.362 151.403 594.834 157.904C595.079 159.008 595.202 160.48 595.202 162.32C595.202 164.283 594.466 165.939 592.994 167.288C591.522 168.76 590.234 169.496 589.13 169.496C589.375 168.637 589.436 167.104 589.314 164.896C589.191 162.811 588.762 161.032 588.026 159.56C587.412 158.088 586.186 156.555 584.346 154.96C582.506 153.365 580.114 152.2 577.17 151.464C573.367 166.429 567.908 178.757 560.794 188.448C552.698 199.365 541.78 204.824 528.042 204.824C517.983 204.824 511.298 201.267 507.986 194.152C507.863 193.784 507.802 193.477 507.802 193.232C507.802 192.496 508.476 191.944 509.826 191.576C511.175 191.331 512.095 191.821 512.586 193.048C514.794 198.077 519.946 200.592 528.042 200.592C539.082 200.592 547.668 195.379 553.802 184.952C559.322 175.752 563.554 164.283 566.498 150.544C544.418 151.035 527.367 159.499 515.346 175.936C514.61 177.04 513.444 177.224 511.85 176.488C510.991 175.997 510.746 175.384 511.114 174.648C516.388 166.675 523.748 159.867 533.194 154.224C542.639 148.704 554.108 145.699 567.602 145.208C568.951 139.075 570.116 132.635 571.098 125.888C572.202 119.019 573.122 113.621 573.858 109.696C574.594 105.771 575.084 102.949 575.33 101.232H573.306C557.114 129.077 545.092 143 537.242 143ZM654.712 53.76C664.035 53.76 668.696 59.2187 668.696 70.136C668.696 76.392 666.611 82.9547 662.44 89.824C655.325 101.232 645.88 106.936 634.104 106.936C632.264 106.936 630.731 106.629 629.504 106.016C628.277 105.403 627.357 104.483 626.744 103.256C635.453 103.256 643.427 98.2267 650.664 88.168C656.552 80.072 659.496 72.6507 659.496 65.904C659.496 60.8747 657.472 58.36 653.424 58.36C645.328 58.36 637.784 64.6773 630.792 77.312C623.309 91.0507 619.568 105.157 619.568 119.632C619.568 131.899 623.064 139.259 630.056 141.712C631.405 142.203 633.123 142.448 635.208 142.448C637.293 142.448 639.501 141.957 641.832 140.976C644.163 139.872 646.125 138.584 647.72 137.112C650.909 134.168 653.547 130.917 655.632 127.36C656.123 126.379 657.043 125.888 658.392 125.888C660.6 125.888 661.643 126.256 661.52 126.992C661.152 128.341 659.741 130.611 657.288 133.8C654.957 136.989 652.749 139.565 650.664 141.528C648.701 143.368 646.064 145.024 642.752 146.496C639.563 148.091 636.312 148.888 633 148.888C619.997 148.888 611.717 142.755 608.16 130.488C607.056 126.317 606.504 122.024 606.504 117.608C606.504 109.389 608.405 100.435 612.208 90.744C618.219 76.024 626.499 65.4133 637.048 58.912C642.813 55.4773 648.701 53.76 654.712 53.76Z" fill="#3D6734"/>
</svg>
